<?xml version="1.0" standalone="no"?>
<!DOCTYPE svg PUBLIC "-//W3C//DTD SVG 20010904//EN"
 "http://www.w3.org/TR/2001/REC-SVG-20010904/DTD/svg10.dtd">
<svg version="1.0" xmlns="http://www.w3.org/2000/svg"
 width="228.000000pt" height="235.000000pt" viewBox="0 0 228.000000 235.000000"
 preserveAspectRatio="xMidYMid meet">

<g transform="translate(0.000000,235.000000) scale(0.100000,-0.100000)"
fill="#000000" stroke="none">
<path d="M1935 2188 c-38 -16 -134 -51 -212 -78 -79 -27 -156 -56 -172 -64
-42 -22 -67 -58 -91 -130 -22 -68 -73 -156 -90 -156 -10 0 -7 21 21 140 9 41
15 77 13 79 -8 8 -76 -30 -154 -85 l-76 -55 -43 -105 c-24 -58 -45 -104 -46
-102 -2 2 6 43 16 92 11 49 18 93 17 98 -4 10 -115 -78 -224 -177 -158 -143
-208 -240 -220 -414 -7 -121 -13 -151 -28 -151 -16 0 -22 21 -31 112 l-7 67
-55 -62 c-70 -80 -154 -205 -195 -292 -32 -67 -33 -75 -34 -193 0 -111 -2
-124 -21 -144 -28 -28 -53 -18 -53 22 0 16 -4 30 -10 30 -13 0 -13 -91 0 -124
5 -15 6 -28 0 -31 -5 -3 -14 14 -21 37 -6 24 -14 53 -18 66 -3 12 -6 -47 -6
-131 l0 -153 79 115 c493 725 1046 1267 1553 1524 122 62 307 137 335 137 7 0
-32 -18 -87 -39 -560 -214 -1138 -756 -1692 -1588 l-124 -188 64 -3 c56 -2 82
3 193 43 158 57 295 122 353 170 24 19 41 35 37 35 -4 0 -42 -18 -84 -39 -73
-38 -84 -40 -216 -50 -77 -6 -141 -9 -144 -7 -11 12 76 41 229 76 185 44 239
67 398 169 52 34 93 61 90 61 -2 0 -33 -9 -67 -20 -50 -16 -91 -20 -190 -20
-148 1 -145 12 8 29 162 19 462 130 531 197 36 35 88 129 77 139 -3 4 -46 1
-94 -6 -85 -11 -182 -9 -409 10 l-80 6 55 12 c30 7 96 12 145 12 103 -1 230
24 400 78 135 43 230 91 280 143 l39 40 -35 -10 c-80 -23 -81 -9 -1 32 45 23
80 44 78 45 -1 2 -23 -4 -49 -13 -25 -8 -56 -14 -69 -12 -15 3 12 15 79 37
117 37 141 57 198 171 19 38 35 72 35 75 0 2 -12 0 -27 -6 -40 -16 -253 -25
-253 -11 0 6 72 34 160 62 89 28 170 60 180 70 11 11 20 34 20 50 0 17 -1 30
-2 30 -2 0 -32 -9 -66 -20 -35 -11 -83 -20 -105 -20 -41 1 -42 1 -17 15 14 8
71 26 128 42 l102 27 0 45 c0 38 -2 42 -12 29 -16 -21 -79 -58 -97 -58 -8 0 2
17 22 39 44 49 54 89 32 132 -9 17 -15 42 -12 55 2 13 2 24 -1 24 -3 0 -57
-27 -119 -60 -63 -33 -119 -60 -124 -60 -13 0 4 38 51 115 23 37 40 68 38 70
-2 1 -34 -11 -73 -27z"/>
<path d="M944 1207 c-191 -199 -430 -493 -591 -726 -37 -53 -120 -170 -185
-260 -65 -90 -117 -165 -116 -166 2 -1 15 -5 29 -8 25 -6 32 2 115 131 324
503 552 810 793 1065 46 48 81 87 78 87 -3 0 -58 -56 -123 -123z"/>
</g>
</svg>
