<?xml version="1.0" standalone="no"?>
<!DOCTYPE svg PUBLIC "-//W3C//DTD SVG 20010904//EN"
 "http://www.w3.org/TR/2001/REC-SVG-20010904/DTD/svg10.dtd">
<svg version="1.0" xmlns="http://www.w3.org/2000/svg"
 width="706.000000pt" height="679.000000pt" viewBox="0 0 706.000000 679.000000"
 preserveAspectRatio="xMidYMid meet">

<g transform="translate(0.000000,679.000000) scale(0.100000,-0.100000)"
fill="#000000" stroke="none">
<path d="M1762 6783 c973 -2 2563 -2 3535 0 973 1 177 2 -1767 2 -1944 0
-2740 -1 -1768 -2z"/>
<path d="M1560 6384 c-87 -31 -185 -109 -384 -304 -246 -242 -338 -345 -385
-435 -36 -69 -36 -71 -36 -190 0 -116 1 -122 33 -186 22 -43 67 -103 130 -170
52 -57 573 -585 1156 -1174 584 -588 1108 -1118 1165 -1177 l104 -107 8 -203
c4 -112 8 -364 8 -561 l1 -357 35 -69 c43 -87 157 -212 512 -562 286 -283 339
-327 370 -311 39 21 437 412 1259 1237 954 957 1034 1041 1034 1082 0 22 -44
71 -233 260 -165 165 -240 233 -256 233 -38 0 -82 -30 -97 -66 -25 -60 -18
-70 220 -312 l131 -132 -1030 -1030 c-566 -567 -1035 -1030 -1040 -1030 -11 0
-450 440 -597 598 -74 79 -88 101 -97 143 -7 31 -11 208 -11 462 -1 503 -9
628 -45 703 -30 62 -255 293 -1555 1599 -460 462 -870 879 -911 927 -128 147
-137 223 -42 357 57 80 433 458 523 525 84 63 124 79 176 73 73 -8 128 -44
270 -179 77 -72 614 -605 1194 -1183 580 -578 1095 -1086 1145 -1128 49 -43
105 -85 125 -94 46 -20 291 -31 755 -33 193 -1 361 -5 375 -9 23 -7 -31 -63
-715 -752 -1112 -1117 -1100 -1105 -1091 -1153 7 -39 58 -86 92 -86 20 0 55
27 138 108 270 258 1824 1821 1850 1859 26 39 27 46 16 73 -21 52 -110 116
-195 142 -16 5 -266 13 -555 18 -289 5 -545 12 -569 15 -50 7 1 -42 -1696
1646 -821 816 -876 869 -965 912 -59 29 -75 32 -170 34 -76 2 -117 -1 -150
-13z"/>
<path d="M2525 4767 c-100 -49 -158 -139 -164 -256 -6 -127 -4 -131 228 -362
113 -114 222 -215 241 -225 50 -27 200 -27 250 0 108 58 160 137 168 251 5 84
-7 128 -49 182 -47 59 -328 339 -388 386 -52 40 -55 41 -145 45 -80 3 -97 0
-141 -21z m185 -192 c17 -9 30 -23 30 -33 0 -10 -29 -46 -64 -81 l-63 -62 -27
31 c-77 92 16 201 124 145z m246 -237 c76 -79 94 -107 94 -145 0 -25 -8 -43
-29 -64 -55 -55 -115 -34 -221 75 l-44 46 69 70 c38 39 72 70 75 70 3 0 28
-24 56 -52z"/>
<path d="M4044 3602 c-94 -75 -523 -518 -530 -547 -8 -34 9 -69 48 -98 36 -27
64 -18 135 42 87 73 478 473 496 507 28 55 -5 117 -69 130 -25 5 -39 -1 -80
-34z"/>
<path d="M5617 3069 c-11 -6 -25 -27 -33 -45 -22 -52 -2 -83 136 -218 137
-134 156 -142 216 -82 53 53 47 71 -53 182 -144 160 -206 198 -266 163z"/>
<path d="M5299 2751 c-34 -35 -38 -73 -10 -116 27 -42 105 -124 180 -189 53
-47 70 -56 101 -56 65 0 117 70 89 122 -20 37 -139 167 -202 220 -72 59 -112
64 -158 19z"/>
<path d="M5017 2469 c-22 -13 -47 -61 -47 -92 0 -30 108 -158 198 -234 51 -44
69 -53 100 -53 58 1 92 38 92 102 0 29 -16 48 -129 160 -114 114 -132 128
-162 128 -19 0 -42 -5 -52 -11z"/>
<path d="M4723 2165 c-65 -28 -71 -91 -14 -162 42 -52 148 -157 195 -191 28
-22 78 -28 111 -15 28 10 55 81 44 112 -11 29 -149 173 -222 232 -53 42 -66
45 -114 24z"/>
<path d="M6224 1958 c-49 -23 -61 -94 -23 -134 12 -13 113 -70 224 -125 235
-118 286 -131 323 -84 35 44 29 88 -15 124 -69 57 -432 233 -476 230 -6 0 -22
-5 -33 -11z"/>
<path d="M4418 1864 c-35 -18 -48 -43 -48 -89 0 -32 11 -47 101 -140 129 -133
167 -160 213 -151 75 14 98 93 47 162 -43 59 -204 212 -235 224 -35 13 -45 12
-78 -6z"/>
<path d="M4103 1552 c-27 -21 -41 -57 -35 -91 3 -16 53 -74 132 -153 134 -135
148 -142 205 -116 15 7 33 24 41 39 29 57 22 71 -114 209 -122 123 -130 130
-168 130 -21 0 -49 -8 -61 -18z"/>
<path d="M5704 1446 c-39 -39 -42 -58 -13 -106 35 -59 630 -648 663 -656 42
-10 78 7 100 47 18 32 18 40 6 70 -9 21 -123 143 -295 315 -287 288 -372 364
-407 364 -11 0 -35 -15 -54 -34z"/>
<path d="M5222 953 c-34 -17 -62 -58 -62 -92 0 -10 45 -109 100 -219 113 -226
142 -262 211 -262 49 0 89 35 89 78 0 39 -200 438 -241 480 -35 36 -50 38 -97
15z"/>
</g>
</svg>
