<?xml version="1.0" standalone="no"?>
<!DOCTYPE svg PUBLIC "-//W3C//DTD SVG 20010904//EN"
 "http://www.w3.org/TR/2001/REC-SVG-20010904/DTD/svg10.dtd">
<svg version="1.0" xmlns="http://www.w3.org/2000/svg"
 width="640.000000pt" height="640.000000pt" viewBox="0 0 640.000000 640.000000"
 preserveAspectRatio="xMidYMid meet">

<g transform="translate(0.000000,640.000000) scale(0.100000,-0.100000)"
fill="#000000" stroke="none">
<path d="M5044 4350 c-12 -5 -37 -26 -55 -48 l-33 -40 -34 30 c-50 44 -73 36
-295 -94 -174 -102 -270 -145 -377 -169 -52 -11 -128 -34 -170 -50 -175 -70
-431 -226 -574 -349 -83 -72 -129 -81 -96 -20 26 48 277 219 485 330 201 107
234 139 197 189 -28 38 -87 68 -160 81 -50 10 -101 10 -240 0 -181 -13 -467
-8 -627 10 -146 18 -547 24 -616 11 -195 -39 -250 -131 -289 -486 -27 -247
-64 -383 -180 -662 l-63 -151 -58 -21 c-34 -13 -68 -34 -83 -52 -54 -64 -85
-245 -63 -366 l7 -43 -61 -37 c-143 -89 -199 -141 -199 -188 0 -15 -7 -21 -31
-22 -52 -4 -77 -41 -47 -71 19 -19 86 -15 104 7 13 14 25 18 54 14 28 -4 75 7
181 42 189 62 254 91 269 121 8 13 16 24 19 23 3 0 19 -27 34 -59 41 -87 68
-100 225 -112 70 -5 147 -13 172 -17 l45 -9 -55 -1 c-62 -1 -166 -25 -188 -43
-66 -55 -1 -161 128 -209 124 -47 212 22 214 168 l1 61 45 4 c25 2 83 1 130
-1 l85 -4 -59 -12 c-43 -9 -67 -9 -88 -1 -38 14 -59 -8 -65 -71 -7 -69 11
-125 54 -167 90 -87 269 -88 323 -1 27 43 27 123 0 175 -11 22 -18 40 -15 40
3 0 38 -7 78 -16 l71 -17 -36 -14 c-69 -27 -72 -77 -18 -244 33 -101 52 -127
118 -166 45 -27 146 -42 196 -29 94 23 87 235 -9 332 -25 24 -40 44 -34 44 15
0 100 -45 234 -123 363 -211 676 -338 893 -363 l62 -7 0 -36 c1 -78 76 -159
187 -201 32 -12 137 -42 234 -66 214 -53 302 -82 443 -146 173 -78 533 -278
954 -530 23 -14 32 -16 32 -6 0 7 -12 20 -28 29 -15 9 -79 47 -142 84 -63 37
-167 98 -230 135 -104 60 -144 83 -305 172 -263 147 -429 212 -734 288 -180
45 -266 76 -317 115 -39 30 -77 97 -72 128 3 20 10 22 73 25 67 3 260 -11 324
-24 24 -5 31 -3 31 9 0 31 -193 86 -299 87 -36 0 -70 -7 -99 -21 -41 -20 -49
-21 -128 -10 -219 31 -532 160 -870 358 -65 39 -141 82 -169 95 -68 34 -354
127 -413 134 -26 3 -72 15 -102 26 -41 15 -90 21 -200 24 -80 3 -181 11 -225
19 -44 8 -140 19 -213 25 -73 5 -141 14 -151 20 -32 17 -69 68 -91 127 -19 50
-21 70 -16 153 7 119 16 149 62 216 37 53 39 79 9 90 -36 14 -104 -74 -106
-137 0 -13 -7 5 -14 40 -16 73 -42 106 -91 115 -48 9 -88 -14 -107 -63 -24
-60 -40 -167 -33 -225 4 -34 2 -46 -4 -36 -15 23 -12 180 5 245 21 81 48 120
99 144 50 25 76 27 76 6 0 -28 42 -40 135 -38 98 1 221 17 300 38 133 36 125
36 157 12 27 -20 44 -22 171 -25 161 -4 217 6 375 64 202 75 419 195 997 551
321 197 398 243 411 243 11 0 99 -102 294 -340 199 -242 456 -476 763 -695
282 -201 870 -580 876 -564 4 13 23 -1 -174 124 -853 540 -1141 774 -1510
1225 -65 80 -143 173 -173 207 l-53 62 41 26 c22 14 45 37 50 50 6 15 33 36
77 58 37 19 108 62 158 97 172 120 221 172 198 210 -10 15 -9 17 6 13 33 -9
99 16 120 45 30 42 35 76 16 96 -18 17 -75 21 -111 6z m94 -23 c15 -17 -12
-70 -44 -88 -29 -15 -91 -16 -106 -1 -13 13 3 43 43 76 33 28 89 35 107 13z
m-207 -78 c19 -22 42 -49 51 -61 17 -19 17 -22 -2 -45 -41 -52 -236 -192 -344
-246 l-50 -25 -32 25 c-47 35 -171 82 -219 83 -61 0 -82 -11 -510 -265 -407
-242 -623 -345 -720 -345 -32 0 -38 4 -51 37 -9 20 -18 69 -21 109 -6 72 -5
73 30 114 58 68 83 165 53 206 -31 40 -77 -21 -96 -126 -7 -36 -14 -75 -16
-88 -10 -49 -170 -93 -267 -72 l-55 11 -6 50 c-13 98 -83 261 -136 317 -25 26
-33 27 -55 5 -14 -14 -16 -30 -13 -85 7 -96 51 -181 128 -251 56 -51 60 -57
60 -99 0 -63 -35 -190 -76 -278 -41 -88 -160 -267 -189 -286 -16 -10 -36 -10
-110 3 -62 10 -129 13 -213 10 -144 -6 -137 -27 -56 165 104 247 138 376 169
653 45 390 111 455 465 455 76 0 254 -9 396 -21 220 -18 296 -20 504 -13 135
4 275 7 312 7 108 -2 218 -48 218 -92 0 -26 -34 -52 -140 -111 -212 -118 -259
-146 -354 -209 -55 -36 -124 -89 -154 -117 -44 -43 -53 -56 -50 -80 2 -24 8
-29 33 -32 31 -2 34 -1 192 129 163 135 437 274 638 324 143 36 186 55 399
177 222 128 234 131 287 67z m-517 -309 c61 -21 136 -60 136 -70 0 -4 -17 -14
-39 -22 -32 -13 -40 -22 -47 -53 -9 -37 -18 -44 -234 -175 -124 -75 -274 -167
-335 -205 -342 -211 -531 -320 -661 -381 -139 -64 -300 -121 -387 -134 -91
-15 -282 -9 -317 10 l-24 13 30 23 c31 26 103 62 339 174 179 84 275 144 275
171 0 11 -6 19 -13 19 -44 0 -286 -111 -432 -198 -79 -46 -185 -124 -185 -134
0 -10 -61 -48 -78 -48 -6 0 18 44 55 98 113 166 183 342 183 463 l0 47 38 -9
c64 -15 131 -10 208 16 41 14 76 25 78 25 2 0 6 -31 9 -69 7 -84 28 -137 60
-152 69 -31 325 85 767 349 204 122 382 224 425 243 51 24 79 24 149 -1z
m-1870 -53 c14 -18 37 -60 52 -93 28 -64 67 -204 59 -213 -3 -2 -26 15 -51 40
-75 73 -127 204 -110 274 8 33 20 32 50 -8z m2016 -55 c0 -10 -56 -52 -69 -52
-20 0 2 40 28 49 34 12 41 13 41 3z m-1454 -26 c9 -23 -23 -118 -50 -151 -22
-27 -25 -28 -26 -10 0 26 27 130 40 156 13 23 28 25 36 5z m-6 -541 c-18 -22
-467 -241 -476 -232 -9 9 295 173 414 223 67 27 79 29 62 9z m-854 -346 c44
-7 71 -15 63 -19 -41 -22 -311 -40 -353 -24 -29 11 -17 33 22 39 20 4 44 8 52
10 36 7 145 4 216 -6z m-322 -148 c26 -28 37 -122 26 -220 -11 -106 -26 -157
-51 -182 -30 -30 -58 -23 -106 25 -36 36 -43 48 -35 63 6 10 10 52 9 93 -1 92
18 180 44 214 25 32 87 36 113 7z m169 -14 c-4 -7 -20 -31 -35 -53 -15 -23
-35 -66 -43 -95 l-15 -54 5 49 c8 76 23 121 50 150 24 26 53 28 38 3z m-110
-400 c-13 -47 -57 -70 -245 -132 -184 -61 -216 -63 -244 -19 -15 22 -15 26 -1
48 21 31 85 82 171 135 64 39 69 41 82 24 7 -10 14 -21 14 -25 0 -16 77 -58
106 -58 50 0 86 56 101 161 l7 54 9 -78 c6 -47 6 -91 0 -110z m-503 -185 c0
-16 -25 -32 -51 -32 -29 0 -44 13 -34 30 7 12 85 14 85 2z m1078 -115 c6 -112
-62 -180 -155 -155 -89 24 -163 87 -163 139 0 53 80 78 235 76 l80 -2 3 -58z
m128 -8 c-21 -30 -21 -91 1 -132 13 -27 14 -30 1 -19 -37 30 -48 163 -16 183
22 14 31 -8 14 -32z m270 26 c31 -21 54 -76 54 -128 0 -105 -116 -156 -245
-107 -26 10 -28 13 -12 21 22 13 23 86 2 155 -8 27 -15 50 -15 51 0 1 15 7 33
12 52 15 160 13 183 -4z m-217 -86 c21 -99 8 -128 -29 -66 -22 35 -26 78 -9
108 15 28 26 16 38 -42z m527 1 c132 -66 178 -133 179 -263 0 -72 -2 -80 -25
-99 -48 -39 -205 -8 -251 48 -11 15 -7 14 22 -4 20 -12 39 -22 42 -22 17 0 37
36 37 66 0 105 -108 198 -154 132 l-15 -21 -12 29 c-6 16 -12 51 -12 77 -2 40
2 52 22 68 35 29 97 25 167 -11z m-64 -167 c46 -48 64 -127 32 -140 -19 -7
-102 71 -110 104 -7 28 12 63 34 63 10 0 30 -12 44 -27z m1648 -329 l45 -14
-55 5 c-30 3 -95 5 -144 5 -55 0 -86 4 -80 9 24 24 156 21 234 -5z"/>
</g>
</svg>
