<?xml version="1.0" standalone="no"?>
<!DOCTYPE svg PUBLIC "-//W3C//DTD SVG 20010904//EN"
 "http://www.w3.org/TR/2001/REC-SVG-20010904/DTD/svg10.dtd">
<svg version="1.0" xmlns="http://www.w3.org/2000/svg"
 width="396.000000pt" height="235.000000pt" viewBox="0 0 396.000000 235.000000"
 preserveAspectRatio="xMidYMid meet">

<g transform="translate(0.000000,235.000000) scale(0.100000,-0.100000)"
fill="#000000" stroke="none">
<path d="M2705 2188 c-38 -16 -134 -51 -212 -78 -79 -27 -156 -56 -172 -64
-42 -22 -67 -58 -91 -130 -22 -68 -73 -156 -90 -156 -10 0 -7 21 21 140 9 41
15 77 13 79 -8 8 -77 -30 -153 -85 -76 -54 -76 -54 -120 -159 -24 -58 -45
-104 -46 -103 -2 2 6 43 16 92 11 49 18 93 17 98 -4 10 -115 -78 -224 -177
-158 -143 -208 -240 -220 -414 -7 -121 -13 -151 -28 -151 -16 0 -22 21 -31
112 l-7 67 -55 -62 c-70 -80 -154 -205 -195 -292 -32 -67 -33 -75 -34 -193 0
-111 -2 -124 -21 -144 -28 -28 -53 -18 -53 22 0 16 -4 30 -10 30 -13 0 -13
-91 0 -124 5 -15 6 -28 0 -31 -5 -3 -14 14 -21 37 -6 24 -14 53 -18 66 -3 12
-6 -47 -6 -131 l0 -153 79 115 c491 722 1042 1264 1546 1520 119 61 287 131
312 131 7 -1 -25 -16 -72 -34 -475 -186 -958 -605 -1442 -1250 -94 -125 -311
-442 -352 -514 -6 -10 8 -12 71 -9 65 3 102 13 218 57 77 29 163 64 190 78 58
28 167 103 161 109 -2 3 -39 -13 -83 -35 -74 -38 -85 -41 -217 -52 -76 -6
-141 -9 -143 -6 -12 12 72 40 228 76 114 27 191 51 237 74 63 32 262 156 250
156 -3 0 -31 -9 -63 -20 -47 -16 -84 -20 -189 -20 -152 1 -150 12 4 29 162 19
462 130 531 197 36 35 88 129 77 139 -3 4 -46 1 -94 -6 -85 -11 -182 -9 -409
10 l-80 6 55 12 c30 7 96 12 145 12 103 -1 230 24 400 78 135 43 230 91 280
143 l39 40 -35 -10 c-80 -23 -81 -9 -1 32 45 23 80 43 79 45 -2 1 -26 -5 -55
-13 -99 -29 -86 -7 15 25 83 26 108 39 133 67 25 29 100 162 100 179 0 2 -12
0 -27 -6 -40 -16 -253 -25 -253 -11 0 6 72 34 160 62 89 28 170 60 180 70 11
11 20 34 20 50 0 17 -1 30 -2 30 -2 0 -32 -9 -66 -20 -35 -11 -83 -20 -105
-19 l-42 1 40 18 c22 11 79 29 128 41 l87 21 0 46 c0 39 -2 43 -12 30 -16 -21
-79 -58 -97 -58 -8 0 2 17 22 39 44 49 54 89 32 132 -9 17 -15 42 -12 55 2 13
2 24 -1 24 -3 0 -57 -27 -119 -60 -63 -33 -119 -60 -124 -60 -13 0 4 38 51
115 23 37 40 68 38 70 -2 1 -34 -11 -73 -27z"/>
<path d="M1717 1210 c-207 -215 -432 -493 -634 -785 -49 -72 -129 -184 -177
-249 -47 -65 -85 -120 -84 -121 2 -1 15 -5 29 -8 25 -6 32 2 115 131 326 508
555 814 798 1070 49 50 86 92 83 92 -3 0 -61 -59 -130 -130z"/>
</g>
</svg>
